# xmcd
#
# Track frame offsets: 
#        150
#        24753
#        46716
#        74085
#        95944
#        124051
#        141542
#        157208
#        182849
#        203739
#        231554
#        261918
#
# Disc length: 3687 seconds
#
# Revision: 0
# Processed by: cddbd v1.5.2PL0 Copyright (c) Steve Scherf et al.
# Submitted via: ExactAudioCopy v0.99pb5
#
DISCID=ba0e650c
DTITLE=Pat Travers  - Travelin' Blues  FLAC
DYEAR=1900
DGENRE=
TTITLE0=Free Man
TTITLE1=Too Cool Woman Blues
TTITLE2=Rock Me Baby
TTITLE3=Travelin' Blues
TTITLE4=Inside Looking Out
TTITLE5=Time Out
TTITLE6=I've Got News For You
TTITLE7=Whippin' Post
TTITLE8=Them Changes
TTITLE9=I'll Love You More Than You'll Ever Know
TTITLE10=Green Eyed Lady
TTITLE11=Built For Comfort
EXTD=
EXTT0=
EXTT1=
EXTT2=
EXTT3=
EXTT4=
EXTT5=
EXTT6=
EXTT7=
EXTT8=
EXTT9=
EXTT10=
EXTT11=
PLAYORDER=
